<?xml version="1.0" standalone="no"?>
<!DOCTYPE svg PUBLIC "-//W3C//DTD SVG 20010904//EN"
 "http://www.w3.org/TR/2001/REC-SVG-20010904/DTD/svg10.dtd">
<svg version="1.0" xmlns="http://www.w3.org/2000/svg"
 width="1280.000000pt" height="1232.000000pt" viewBox="0 0 1280.000000 1232.000000"
 preserveAspectRatio="xMidYMid meet">
<metadata>
Created by potrace 1.15, written by Peter Selinger 2001-2017
</metadata>
<g transform="translate(0.000000,1232.000000) scale(0.100000,-0.100000)"
fill="#000000" stroke="none">
<path d="M6705 11934 c-715 -211 -1457 -429 -1649 -486 l-349 -103 -264 -620
c-145 -341 -305 -718 -356 -837 -50 -120 -95 -214 -99 -210 -3 4 -48 97 -98
207 -51 110 -93 201 -94 203 -2 1 -230 -11 -507 -28 -277 -16 -507 -30 -511
-30 -4 0 -9 -118 -10 -262 l-3 -263 -400 460 c-220 253 -405 460 -411 460 -6
0 -329 -341 -717 -759 l-707 -759 0 -1031 1 -1031 1068 -930 c890 -774 1066
-932 1054 -942 -8 -6 -307 -177 -664 -379 l-649 -368 0 -35 c0 -20 11 -234 26
-476 23 -394 27 -442 44 -455 94 -78 740 -656 740 -662 0 -4 -109 -182 -243
-395 -133 -213 -243 -390 -245 -394 -2 -5 706 -313 1184 -515 l30 -13 369 295
368 295 56 -6 c31 -3 722 -55 1536 -116 814 -60 1483 -113 1486 -117 4 -4 141
-187 306 -407 165 -220 406 -541 535 -712 l236 -313 467 763 c258 419 469 764
471 766 2 2 243 -126 536 -285 l533 -288 870 108 c479 60 872 110 874 112 2 2
-89 202 -204 445 l-207 442 532 532 c347 347 531 538 527 546 -4 8 -298 343
-655 744 -357 402 -644 731 -638 732 6 2 259 -30 561 -71 l550 -73 35 30 c19
17 203 185 408 375 l372 344 0 69 c0 40 -4 69 -10 69 -6 0 -214 -36 -463 -80
-248 -43 -464 -81 -479 -82 -27 -3 -43 23 -446 717 l-419 720 -399 92 c-219
51 -406 93 -414 95 -8 2 126 50 298 107 173 58 316 109 318 115 6 18 55 944
52 980 -3 30 -87 106 -953 866 -522 458 -964 847 -982 864 -34 33 2 -80 -683
2111 l-78 250 -69 2 c-63 1 -172 -30 -1368 -383z"/>
</g>
</svg>
